Coordinates
version=1
nRows=16
nColumns=22
inDegrees=yes

Units are S.I. units (second, meters, Newtons, ...)
If the header above contains a line with 'inDegrees', this indicates whether rotational values are in degrees (yes) or radians (no).

endheader
time	pelvis_tilt	pelvis_list	pelvis_rotation	pelvis_tx	pelvis_ty	pelvis_tz	hip_flexion_r	hip_adduction_r	hip_rotation_r	knee_angle_r	ankle_angle_r	subtalar_angle_r	hip_flexion_l	hip_adduction_l	hip_rotation_l	knee_angle_l	ankle_angle_l	subtalar_angle_l	lumbar_extension	lumbar_bending	lumbar_rotation
      1.23000000	     -8.42286639	     -2.42266726	    -28.65795120	     -0.89332590	      0.87749168	     -0.38039223	     41.32537067	      0.09782462	     -4.85294689	    -64.87986367	      7.10538756	     -3.23350106	     -2.94280606	     -4.05510008	      1.56003026	     -7.81865584	     20.95232478	     -3.33397973	     -4.06329720	      5.29094449	      3.84316297
      1.24000000	     -8.49030318	     -2.68573072	    -28.51901383	     -0.88979141	      0.87708632	     -0.37817492	     41.68291702	      0.46981879	     -4.90554920	    -63.99383727	      6.97603118	     -2.53849332	     -3.12217698	     -4.36825121	      1.66197560	     -8.14199369	     21.26958408	     -3.30742152	     -4.17387242	      5.58884213	      3.67947112
      1.25000000	     -8.54584486	     -2.94985079	    -28.39227024	     -0.88612479	      0.87662977	     -0.37583832	     41.93621386	      0.85960418	     -4.90933968	    -62.83387206	      6.77041194	     -1.74029623	     -3.33686557	     -4.67874298	      1.75335300	     -8.44459593	     21.62437971	     -3.26751289	     -4.29210772	      5.88468076	      3.52686018
      1.26000000	     -8.59715826	     -3.23206424	    -28.26218124	     -0.88231701	      0.87613885	     -0.37338471	     42.06379933	      1.26528889	     -4.90736274	    -61.38194006	      6.53967909	     -1.03235002	     -3.56196497	     -5.00934868	      1.83253347	     -8.77684408	     21.96601411	     -3.24656741	     -4.41691110	      6.19636016	      3.37136798
      1.27000000	     -8.61162113	     -3.48621259	    -28.14113314	     -0.87839522	      0.87558456	     -0.37087222	     42.08556023	      1.63571049	     -4.84015163	    -59.68387336	      6.21186909	     -0.18412541	     -3.83447097	     -5.29209868	      1.94792850	     -9.07829108	     22.33394586	     -3.19270860	     -4.57053006	      6.46751392	      3.24956123
      1.28000000	     -8.63041810	     -3.74033481	    -28.00795672	     -0.87434346	      0.87494421	     -0.36828302	     41.99637100	      1.98536426	     -4.78689264	    -57.71303817	      5.90754820	      0.46724145	     -4.09147068	     -5.58087143	      2.05676796	     -9.41918270	     22.68717970	     -3.17215917	     -4.71495077	      6.74357515	      3.12967359
      1.29000000	     -8.62535852	     -3.96152583	    -27.87260898	     -0.87016501	      0.87420563	     -0.36565531	     41.80760232	      2.27424800	     -4.70930659	    -55.50893471	      5.54008857	      1.12365805	     -4.37244691	     -5.82470773	      2.17620772	     -9.74300888	     23.05529847	     -3.13876967	     -4.86764409	      6.98451059	      3.00297150
      1.30000000	     -8.59291850	     -4.13421826	    -27.72435378	     -0.86589074	      0.87335705	     -0.36298519	     41.52403524	      2.48461276	     -4.60844294	    -53.08575668	      5.14671887	      1.75249738	     -4.66408363	     -6.00966391	      2.30740112	    -10.05694947	     23.41915471	     -3.09112492	     -5.02662378	      7.16649378	      2.86498514
      1.31000000	     -8.58808090	     -4.27357765	    -27.55743426	     -0.86149173	      0.87233355	     -0.36027156	     41.17829066	      2.64255282	     -4.52882113	    -50.43985300	      4.78937605	      2.12445615	     -4.90954151	     -6.17979914	      2.44282740	    -10.39021245	     23.80277372	     -3.08483246	     -5.13617926	      7.34132747	      2.69829718
      1.32000000	     -8.51554498	     -4.37915474	    -27.37847400	     -0.85699577	      0.87125805	     -0.35751221	     40.69915388	      2.71148943	     -4.44374613	    -47.61291374	      4.44234637	      2.57339706	     -5.21868136	     -6.28702264	      2.61019696	    -10.70699358	     24.16434905	     -3.02699168	     -5.30700553	      7.44481305	      2.57610782
      1.33000000	     -8.46704365	     -4.43064170	    -27.18296759	     -0.85237194	      0.86998437	     -0.35469157	     40.18368848	      2.71832945	     -4.36307553	    -44.61918538	      4.14555383	      2.83904941	     -5.49052914	     -6.35912928	      2.76982834	    -11.01448348	     24.54549052	     -2.99295569	     -5.41985171	      7.51839000	      2.39687039
      1.34000000	     -8.38684745	     -4.43292313	    -26.97528502	     -0.84764322	      0.86859386	     -0.35181186	     39.59416741	      2.64664314	     -4.28681973	    -41.49818923	      3.89708972	      3.03048764	     -5.78463845	     -6.37329803	      2.94506785	    -11.30713353	     24.91427244	     -2.94010270	     -5.54522274	      7.52806934	      2.23876857
      1.35000000	     -8.31647431	     -4.37568679	    -26.75309083	     -0.84280974	      0.86702575	     -0.34884415	     38.98736606	      2.50977099	     -4.22694459	    -38.28149456	      3.68626892	      3.11933026	     -6.05887626	     -6.34394463	      3.12282164	    -11.58012915	     25.28575281	     -2.89596875	     -5.62840077	      7.48459852	      2.05412291
      1.36000000	     -8.20960301	     -4.28676553	    -26.53195371	     -0.83781530	      0.86536444	     -0.34579130	     38.31294626	      2.32029990	     -4.18413172	    -35.00536406	      3.59594033	      3.16064897	     -6.39115781	     -6.27064191	      3.29410277	    -11.81322157	     25.63603579	     -2.81813361	     -5.73172396	      7.39998964	      1.89341007
      1.37000000	     -8.11391842	     -4.13641520	    -26.30509042	     -0.83273263	      0.86354049	     -0.34264121	     37.65892981	      2.07847706	     -4.16184454	    -31.71712443	      3.53016348	      3.15702322	     -6.70914018	     -6.15293151	      3.46494493	    -12.01645581	     25.97752150	     -2.73141237	     -5.79418404	      7.26048814	      1.72968838
      1.38000000	     -8.03368569	     -3.93192106	    -26.07802972	     -0.82755272	      0.86157005	     -0.33938760	     37.03771760	      1.79947983	     -4.15659278	    -28.45660704	      3.50777251	      3.14878276	     -7.01593455	     -5.99925430	      3.62693967	    -12.18708017	     26.29547090	     -2.63829672	     -5.81480287	      7.07671841	      1.57643525
